<svg class="{{ .class }}" data-name="Layer 1" xmlns="http://www.w3.org/2000/svg" width="35" height="35.01" viewBox="0 0 35 35.01">
  <path d="M33.25,15.11a1.7,1.7,0,0,0,1.69-1.7V12.34a1.77,1.77,0,0,0-.73-1.41L18.4.3a1.61,1.61,0,0,0-1.86,0L.73,10.92A1.77,1.77,0,0,0,0,12.34v1.07a1.66,1.66,0,0,0,1.69,1.7H2.82V31.05H.56a.53.53,0,0,0-.56.57v2.83A.53.53,0,0,0,.56,35H34.44a.53.53,0,0,0,.56-.57V31.62a.53.53,0,0,0-.56-.57H32.18V15.11ZM1.07,13.41V12.34a.59.59,0,0,1,.23-.45L17.1,1.26a.56.56,0,0,1,.68,0L33.59,11.89a.51.51,0,0,1,.23.45v1.07a.53.53,0,0,1-.56.57H1.64A.57.57,0,0,1,1.07,13.41ZM19.42,31.05V15.11h8.75V31.05Zm-2.82,0V15.11h1.69V31.05Zm-9.88,0V15.11h8.75V31.05ZM3.9,15.11H5.59V31.05H3.9ZM33.81,33.88H1.07v-1.7H33.81ZM31,31.05H29.3V15.11H31ZM17.44,5.16a3.39,3.39,0,1,0,3.39,3.39A3.4,3.4,0,0,0,17.44,5.16Zm0,5.65A2.26,2.26,0,1,1,19.7,8.55,2.27,2.27,0,0,1,17.44,10.81Z"/>
</svg>
