<svg class="{{ .class }}" xmlns="http://www.w3.org/2000/svg" width="16" height="10" viewBox="0 0 16 10">
  <path d="M14.34,0H1.66A1.63,1.63,0,0,0,0,1.59V8.41A1.63,1.63,0,0,0,1.66,10H14.34A1.63,1.63,0,0,0,16,8.41V1.59A1.63,1.63,0,0,0,14.34,0Zm-3.4,4.66,4.27-3.34a.84.84,0,0,1,.05.28V8.41a.84.84,0,0,1,0,.25Zm3.4-4a1,1,0,0,1,.38.08L8,6,1.29.79A1,1,0,0,1,1.66.71ZM.78,8.65a.84.84,0,0,1,0-.25V1.59a.84.84,0,0,1,.05-.28L5.06,4.66Zm.88.64a1,1,0,0,1-.41-.09L5.63,5.11,8,7l2.37-1.85L14.74,9.2a1,1,0,0,1-.41.09H1.66Z"/>
</svg>
