<svg class="@@class" xmlns="http://www.w3.org/2000/svg" width="53" height="35" viewBox="0 0 53 35">
  <path d="M52.89,14.78l-7-12a.79.79,0,0,0-1-.34,12.33,12.33,0,0,1-4,.77,7.78,7.78,0,0,1-2.89-1A13.16,13.16,0,0,0,32.28.47,10.27,10.27,0,0,0,27,1.92,10.29,10.29,0,0,0,21.88,0,13.18,13.18,0,0,0,16,1.23,7.65,7.65,0,0,1,13,2,12.43,12.43,0,0,1,9.14.9a.79.79,0,0,0-1,.25l-8,11.39a.79.79,0,0,0,.14,1.07l8.5,7.06,0,0a3.32,3.32,0,0,0,2.94,5.63A3.33,3.33,0,0,0,15,29.63a3.27,3.27,0,0,0,.83-.11,3.32,3.32,0,0,0,3.31,3.13,3.4,3.4,0,0,0,.66-.06,6.25,6.25,0,0,0,5,2.41,7.67,7.67,0,0,0,2.81-.53,5.68,5.68,0,0,0,1.76.28,5.12,5.12,0,0,0,3.4-1.21,3.33,3.33,0,0,0,4.53-2.45,3.32,3.32,0,0,0,4.95-2.59A3.33,3.33,0,0,0,45.63,23l-1.32-1.32,8.34-5.81A.79.79,0,0,0,52.89,14.78Zm-40.55,9.5a1.74,1.74,0,0,1-2.46-2.47l1.51-1.51a1.74,1.74,0,0,1,2.46,2.47ZM16.82,27l-.56.57a1.74,1.74,0,0,1-2.46-2.47l3.39-3.4a1.74,1.74,0,0,1,2.46,2.46L16.82,27Zm2.35,4.1a1.74,1.74,0,0,1-1.23-3l2.83-2.84h0l.56-.56a1.74,1.74,0,0,1,2.46,2.47l-3.39,3.4A1.73,1.73,0,0,1,19.17,31.07Zm5.94,1.21a2.35,2.35,0,0,0,.7,1.06,4.78,4.78,0,0,1-4.5-1.46l.22-.2,3.39-3.4.12-.13c1.19.93.92,1.4.52,2.12A2.5,2.5,0,0,0,25.11,32.28Zm19.41-8.21a1.74,1.74,0,1,1-2.46,2.47l-7.87-7.88a.79.79,0,1,0-1.12,1.12L40.23,27h0a1.74,1.74,0,1,1-2.46,2.47l-1.32-1.32h0l-4.69-4.69a.79.79,0,1,0-1.12,1.12l4.69,4.7a1.74,1.74,0,0,1-1.23,3h0a1.73,1.73,0,0,1-1.23-.51L30,28.81a.79.79,0,1,0-1.12,1.12l2.64,2.64a3.77,3.77,0,0,1-2.07.59A4,4,0,0,1,28,32.89c-1.12-.59-1.3-1-1.33-1.06s.09-.41.3-.78c.67-1.18,1.17-2.57-1.14-4.31a3.36,3.36,0,0,0,.1-.81,3.31,3.31,0,0,0-4.16-3.22,3.32,3.32,0,0,0-5.66-2.15l-.21.21a3.32,3.32,0,0,0-5.58-1.58l-.37.37-.06-.06-8-6.63L9.06,2.6a13.53,13.53,0,0,0,3.85,1,8.88,8.88,0,0,0,3.66-.87,11.67,11.67,0,0,1,5.18-1.1A8.67,8.67,0,0,1,25.6,2.89a15.44,15.44,0,0,0-3.34,3.8c-.38.6-3.68,6-2.81,8.67a2.11,2.11,0,0,0,1.23,1.36A3.49,3.49,0,0,0,22,17c2.09,0,3.67-1.93,5.19-3.79,1.12-1.36,2.27-2.77,3.4-3.07l7.19,7.21.76.76,4,4h0ZM43.18,20.5l-4.27-4.28h0L31.43,8.73a.79.79,0,0,0-.56-.23h-.05c-1.91.13-3.4,1.94-4.84,3.7-1.29,1.58-2.63,3.21-4,3.21a1.9,1.9,0,0,1-.73-.15.52.52,0,0,1-.32-.37c-.43-1.35,1-4.79,2.64-7.34,1.29-2,4.13-5.48,8.69-5.48a11.72,11.72,0,0,1,5.06,1.53,8.8,8.8,0,0,0,3.58,1.18,13.55,13.55,0,0,0,3.92-.65l6.31,10.83Z" transform="translate(0 0)"/>
</svg>
