<svg class="{{ .class }}" xmlns="http://www.w3.org/2000/svg" width="191.96" height="61.04" viewBox="0 0 191.96 61.04">
  <circle id="black-circle" cx="161.44" cy="30.52" r="30.52" fill="#232222"/>
  <path id="c" d="M181.06,21.5l-4.87,1.74Q171.28,18,162.44,18q-6.7,0-10.91,3.44a10.8,10.8,0,0,0-4.22,8.75,10.84,10.84,0,0,0,4.18,8.87q4.17,3.37,11.28,3.37,8.57,0,13.48-5.31l4.6,2.55A20.83,20.83,0,0,1,173,45.55a27.63,27.63,0,0,1-10.52,1.81q-8.57,0-14.24-4.29a15.39,15.39,0,0,1-6.47-12.86,15.32,15.32,0,0,1,6.56-12.77,22.77,22.77,0,0,1,14.15-4.33Q174.59,13.11,181.06,21.5Z" fill="#fff"/>
  <path id="black-circle-2" data-name="black-circle" d="M126.5,30.52A30.52,30.52,0,1,1,96,0,30.52,30.52,0,0,1,126.5,30.52Z" fill="#232222"/>
  <path id="h" d="M114.49,46.46h-5.36V32.09H83.23V46.46H77.87V14.13h5.36V27.26h25.9V14.13h5.36Z" fill="#fff"/>
  <circle id="white-circle" cx="30.52" cy="30.52" r="30.52" fill="#fff"/>
  <path id="r" d="M49.07,46.46H42.84L34.09,34.14H17.77V46.46H12.41V14.13h25.5q5.09,0,8,2.75a9.75,9.75,0,0,1,2.9,7.44,9.24,9.24,0,0,1-2.37,6.61,10.27,10.27,0,0,1-6,2.94Zm-12-17.15q6.21,0,6.21-5,0-5.36-6.7-5.36H17.77V29.32Z" fill="#e62e27"/>
</svg>
