<svg class="{{ .class }}" xmlns="http://www.w3.org/2000/svg" width="2.68in" height="1.84in" viewBox="0 0 192.84 132.82">
  <defs>
    <style>
      .cls-1 {
        fill: #e72c25;
      }

      .cls-2, .cls-3 {
        fill: #fff;
      }

      .cls-3 {
        stroke: #fff;
        stroke-miterlimit: 10;
        stroke-width: 2.23px;
      }

      .cls-4 {
        fill: #232222;
      }
    </style>
  </defs>
  <title>logo</title>
  <path class="cls-1" d="M34.54,24.07l-.5-.45-.35-.35a6.54,6.54,0,0,1-.48-.58q-.29-.38-.9-1.15-.73-.93-1.29-1.67c-.37-.5-.75-1-1.13-1.48s-.8-1-1.25-1.47-1-1.05-1.6-1.67a14.86,14.86,0,0,0-1.67-1.42,4.39,4.39,0,0,0-1.9-.83,6.71,6.71,0,0,0-1.12-.13c-.23,0-.53,0-.88,0v3.75c0,1.06,0,2,0,2.69s0,1.31.07,1.82A2.19,2.19,0,0,0,22,22.35a3.25,3.25,0,0,0,1.19.88,6,6,0,0,0,2.46.51v.33H13.35v-.33a11.86,11.86,0,0,0,1.84-.4,3.08,3.08,0,0,0,1.38-.79,1.43,1.43,0,0,0,.31-.6,5.71,5.71,0,0,0,.18-.9c0-.33.07-.68.09-1.06s0-.74,0-1.1,0-.73,0-1.26,0-1.11,0-1.74,0-1.28,0-1.94V5.57c0-.4,0-.8,0-1.21s0-.8-.08-1.16a5.61,5.61,0,0,0-.19-1,1.34,1.34,0,0,0-.37-.65A3,3,0,0,0,15.33.84,14.83,14.83,0,0,0,13.58.53V.2h4.54l3.3,0h2.69q2.58,0,4.58.13a10.27,10.27,0,0,1,3.65.9,7.19,7.19,0,0,1,2.73,2.07,5.16,5.16,0,0,1,1,3.3,4.64,4.64,0,0,1-.52,2.21,5.93,5.93,0,0,1-1.39,1.72,8.43,8.43,0,0,1-2,1.28,17.35,17.35,0,0,1-2.42.9v.1a4.86,4.86,0,0,1,1.27.86,13,13,0,0,1,1.2,1.26l2.17,2.72q1.17,1.46,2.1,2.59a11,11,0,0,0,2.77,2.52,8.11,8.11,0,0,0,3.16,1v.33ZM30.73,3.42a6.48,6.48,0,0,0-2.81-2.06A9.34,9.34,0,0,0,26,.83,13.22,13.22,0,0,0,23.85.66c-.54,0-1,0-1.31,0l-.77.06c0,.13,0,.25-.07.35a2.16,2.16,0,0,0-.06.38c0,.16,0,.37,0,.65s0,.67-.06,1.18c0,.78,0,1.65-.06,2.62s0,1.91,0,2.82V12.4c1.05,0,2,0,2.94-.12A13.57,13.57,0,0,0,27,11.8a7.57,7.57,0,0,0,2.11-.89A5.7,5.7,0,0,0,30.6,9.63a5,5,0,0,0,.82-1.54,5.51,5.51,0,0,0,.27-1.72A4.81,4.81,0,0,0,30.73,3.42Z"/>
  <path class="cls-1" d="M56.65,20.67a6.35,6.35,0,0,1-1.46,1.67,7.9,7.9,0,0,1-5.07,1.76,9.76,9.76,0,0,1-3.58-.63,7.79,7.79,0,0,1-2.75-1.78A8,8,0,0,1,42,19a8.73,8.73,0,0,1-.62-3.27A7.09,7.09,0,0,1,42,13a8,8,0,0,1,1.63-2.47,8.17,8.17,0,0,1,5.94-2.45,11.55,11.55,0,0,1,2.83.33,7,7,0,0,1,2.31,1,5.49,5.49,0,0,1,1.6,1.71A5.57,5.57,0,0,1,57,13.53H44.69a6,6,0,0,1,0,.61,6.71,6.71,0,0,0,0,.71,7.76,7.76,0,0,0,.46,2.67,6.73,6.73,0,0,0,1.34,2.25,6.15,6.15,0,0,0,2.23,1.54,8,8,0,0,0,3.11.56A6.53,6.53,0,0,0,55.13,21,4.15,4.15,0,0,0,57,19l.31.07A5.64,5.64,0,0,1,56.65,20.67ZM52.24,9.5a3.81,3.81,0,0,0-2.63-.88,3.55,3.55,0,0,0-1.94.55,6.71,6.71,0,0,0-1.5,1.28,6.37,6.37,0,0,0-1,1.48,5.51,5.51,0,0,0-.42,1.14h2.94l1.4,0h1.62c.39,0,.74,0,1.08,0a3.41,3.41,0,0,0,.88-.16,2.65,2.65,0,0,0,.4-.5,1.42,1.42,0,0,0,.13-.7A2.73,2.73,0,0,0,52.24,9.5Z"/>
  <path class="cls-1" d="M71.83,24.18H71.6V20.86h0a7.22,7.22,0,0,1-2.63,2.45,8.1,8.1,0,0,1-3.79.8,8,8,0,0,1-2.75-.48A6.6,6.6,0,0,1,60,22.14a7.4,7.4,0,0,1-1.65-2.49,8.77,8.77,0,0,1-.62-3.4A7.33,7.33,0,0,1,58.47,13a7.86,7.86,0,0,1,2-2.6,9.49,9.49,0,0,1,3.1-1.74,12.1,12.1,0,0,1,4-.63,13.69,13.69,0,0,1,2.17.17,17.63,17.63,0,0,1,1.87.4c0-.33,0-.79-.06-1.36s0-1.16,0-1.76V2.69l-3.15-1v-.2L74.49,0h.31V21.52a9.42,9.42,0,0,0,1.15.46l1.58.57v.23Zm-.27-12.47a6.8,6.8,0,0,0-2.15-2.19A4.59,4.59,0,0,0,67,8.69a5.11,5.11,0,0,0-2.56.6,5.22,5.22,0,0,0-1.75,1.59,6.94,6.94,0,0,0-1,2.29,10.81,10.81,0,0,0-.33,2.65,9.08,9.08,0,0,0,.38,2.63,6.74,6.74,0,0,0,1.16,2.25,5.87,5.87,0,0,0,1.9,1.58,5.57,5.57,0,0,0,2.63.6A4.15,4.15,0,0,0,70.12,22a4.08,4.08,0,0,0,1.44-2.36Z"/>
  <path class="cls-2" d="M106.2,24.07v-.33a8.77,8.77,0,0,0,2.38-.44,2.65,2.65,0,0,0,1.27-.78,1,1,0,0,0,.14-.4c0-.2.07-.43.09-.7s0-.54.06-.83,0-.57,0-.83c0-.73,0-1.48,0-2.26V12.27H95V19.4c0,.64,0,1.26,0,1.86a2.14,2.14,0,0,0,.35,1.26,2.93,2.93,0,0,0,1.31.86,6.46,6.46,0,0,0,1.66.36v.33H87v-.33a9.32,9.32,0,0,0,1.85-.44,3.56,3.56,0,0,0,1.34-.78,1.25,1.25,0,0,0,.25-.55,6.94,6.94,0,0,0,.15-.88c0-.33.07-.69.1-1.08s0-.76,0-1.11,0-.73,0-1.26,0-1.11,0-1.74,0-1.28,0-1.94V4.38a9.69,9.69,0,0,0-.06-1.11,5.81,5.81,0,0,0-.17-.93,1.44,1.44,0,0,0-.35-.65A3.09,3.09,0,0,0,88.92.88,8.93,8.93,0,0,0,87.13.53V.2H98.59V.53c-.36,0-.74.11-1.15.2a3.92,3.92,0,0,0-1.12.41,2.62,2.62,0,0,0-.84.78,2.37,2.37,0,0,0-.39,1.26q0,1.16-.06,2.5c0,.9,0,1.75,0,2.57v3.35H110.2V6.27c0-.58,0-1.23,0-2,0-.42-.06-.86-.1-1.31a2.18,2.18,0,0,0-.37-1.11A2.85,2.85,0,0,0,108.12.78a9,9,0,0,0-1.77-.25V.2h11.57V.53a7.13,7.13,0,0,0-1.81.45,2.61,2.61,0,0,0-1.3,1,1.7,1.7,0,0,0-.23.65,7.56,7.56,0,0,0-.11.93c0,.34,0,.69,0,1V15.45c0,.62,0,1.26,0,1.92s0,1.39,0,2.19c0,.64,0,1.23.05,1.78a2.15,2.15,0,0,0,.29,1.11,2.6,2.6,0,0,0,1.34.93,9,9,0,0,0,1.85.36v.33Z"/>
  <path class="cls-2" d="M137.73,19.15a8.62,8.62,0,0,1-2,2.63,8.91,8.91,0,0,1-2.86,1.76,9.46,9.46,0,0,1-3.44.63,11.28,11.28,0,0,1-3.12-.46,9.3,9.3,0,0,1-3-1.48,8,8,0,0,1-2.23-2.59,7.61,7.61,0,0,1-.86-3.7,6.91,6.91,0,0,1,.67-3,7.87,7.87,0,0,1,1.89-2.52,9.27,9.27,0,0,1,2.92-1.76,10.61,10.61,0,0,1,6.9-.17A9.33,9.33,0,0,1,135.52,10a7.9,7.9,0,0,1,2.11,2.45,7,7,0,0,1,.83,3.46A7.22,7.22,0,0,1,137.73,19.15ZM134.6,13.5a8.1,8.1,0,0,0-.94-2.39,5.6,5.6,0,0,0-1.73-1.81,4.7,4.7,0,0,0-2.65-.71,4,4,0,0,0-2.27.66A6.07,6.07,0,0,0,125.29,11a8.26,8.26,0,0,0-1.08,2.42,10.43,10.43,0,0,0-.37,2.74,13.21,13.21,0,0,0,.31,2.88,7.19,7.19,0,0,0,1,2.41,4.94,4.94,0,0,0,4.34,2.27,4,4,0,0,0,2.52-.78,6,6,0,0,0,1.65-2,9.41,9.41,0,0,0,.92-2.54,12.18,12.18,0,0,0,.29-2.52A11.12,11.12,0,0,0,134.6,13.5Z"/>
  <path class="cls-2" d="M157,19.15a8.62,8.62,0,0,1-2,2.63,8.91,8.91,0,0,1-2.86,1.76,9.46,9.46,0,0,1-3.44.63,11.28,11.28,0,0,1-3.12-.46,9.3,9.3,0,0,1-3-1.48,7.94,7.94,0,0,1-2.23-2.59,7.6,7.6,0,0,1-.86-3.7,6.91,6.91,0,0,1,.67-3,7.87,7.87,0,0,1,1.89-2.52A9.26,9.26,0,0,1,145,8.72a10.61,10.61,0,0,1,6.9-.17A9.33,9.33,0,0,1,154.78,10a7.9,7.9,0,0,1,2.11,2.45,7,7,0,0,1,.82,3.46A7.22,7.22,0,0,1,157,19.15Zm-3.13-5.65a8,8,0,0,0-.94-2.39,5.57,5.57,0,0,0-1.73-1.81,4.7,4.7,0,0,0-2.65-.71,4,4,0,0,0-2.27.66A6.07,6.07,0,0,0,144.55,11a8.26,8.26,0,0,0-1.08,2.42,10.43,10.43,0,0,0-.37,2.74,13.21,13.21,0,0,0,.31,2.88,7.18,7.18,0,0,0,1,2.41,4.94,4.94,0,0,0,4.34,2.27,4,4,0,0,0,2.52-.78,6,6,0,0,0,1.66-2,9.38,9.38,0,0,0,.92-2.54,12.11,12.11,0,0,0,.29-2.52A11.06,11.06,0,0,0,153.86,13.5Z"/>
  <path class="cls-2" d="M169.06,24.07v-.33a8.67,8.67,0,0,0,1.28-.13c.35-.07.52-.25.52-.57a2.48,2.48,0,0,0-.52-.91c-.35-.48-.76-1-1.23-1.64s-1-1.25-1.5-1.91-1-1.2-1.37-1.64a1.64,1.64,0,0,0-1.11-.73l-.33,0a1.22,1.22,0,0,0-.29.08v6.5a.57.57,0,0,0,.19.46,1.25,1.25,0,0,0,.5.25,3.85,3.85,0,0,0,.69.11l.77.1v.33H159v-.33a8.87,8.87,0,0,0,1.59-.25.8.8,0,0,0,.71-.81V3.95a1.8,1.8,0,0,0,0-.41c0-.1-.13-.2-.31-.32a8.33,8.33,0,0,0-.82-.41l-1.06-.48v-.2l5.12-2h.31V16c.75-.53,1.55-1.13,2.43-1.81s1.67-1.33,2.42-2,1.36-1.18,1.85-1.66.73-.79.73-.95-.1-.28-.31-.38a3.31,3.31,0,0,0-.77-.25c-.31-.07-.64-.12-1-.17a8.16,8.16,0,0,0-1-.06V8.39h9.42v.33l-.73,0a10.52,10.52,0,0,0-1.44.23,14.7,14.7,0,0,0-1.77.51,6.62,6.62,0,0,0-1.75.93q-1.23.9-2.42,1.84l-2.23,1.78q1.69,2.22,3.19,4.16t2.61,3.2A12.13,12.13,0,0,0,176,23.54a9.48,9.48,0,0,0,1,.13,13.74,13.74,0,0,0,1.39.06v.33Z"/>
  <g>
    <path class="cls-2" d="M32.74,125.6a4.71,4.71,0,0,1-1,1.07,4.41,4.41,0,0,1-1.33.72,5,5,0,0,1-1.61.25,4.87,4.87,0,0,1-2-.42,4.59,4.59,0,0,1-1.6-1.19,5.75,5.75,0,0,1-1-1.79,6.35,6.35,0,0,1-.38-2.19,5.67,5.67,0,0,1,.39-2.09,5.59,5.59,0,0,1,1.07-1.74A5.3,5.3,0,0,1,26.85,117a4.73,4.73,0,0,1,2.06-.45,5.94,5.94,0,0,1,1.48.18,4.73,4.73,0,0,1,1.3.52,3,3,0,0,1,.92.84,2,2,0,0,1,.35,1.16,1.18,1.18,0,0,1-1.88,1,1,1,0,0,1-.4-.57,2.25,2.25,0,0,0,.12-.78,2.18,2.18,0,0,0-.44-1.4,1.68,1.68,0,0,0-1.4-.56,2.42,2.42,0,0,0-1.3.37,3.42,3.42,0,0,0-1,1,5,5,0,0,0-.69,1.44,6,6,0,0,0-.25,1.76,6.11,6.11,0,0,0,.27,1.88,4.32,4.32,0,0,0,.78,1.46,3.46,3.46,0,0,0,1.22.93,3.78,3.78,0,0,0,1.6.33,4.52,4.52,0,0,0,2.23-.47,3.77,3.77,0,0,0,1.37-1.38l.18.09A4.64,4.64,0,0,1,32.74,125.6Z"/>
    <path class="cls-2" d="M43.55,126.18a2.92,2.92,0,0,1-.48.74,2,2,0,0,1-.7.5,2.33,2.33,0,0,1-2.26-.28,1.89,1.89,0,0,1-.6-1.6l0,0a5.24,5.24,0,0,1-.49.66,4.78,4.78,0,0,1-.73.68,3.7,3.7,0,0,1-.94.51,3.12,3.12,0,0,1-1.13.19,2.87,2.87,0,0,1-.74-.1,1.82,1.82,0,0,1-.69-.37,2,2,0,0,1-.5-.67,2.33,2.33,0,0,1-.19-1,1.88,1.88,0,0,1,.51-1.23,5.8,5.8,0,0,1,1.27-1.07c.5-.32.95-.59,1.33-.82l1-.58.76-.41.56-.31v-2.35a.82.82,0,0,0-.08-.21,1.21,1.21,0,0,0-.27-.36,1.83,1.83,0,0,0-.54-.33,2.26,2.26,0,0,0-.89-.15,2.14,2.14,0,0,0-.72.13,2.53,2.53,0,0,0-.63.32,2.24,2.24,0,0,0-.43.39.56.56,0,0,0-.16.33v1a.71.71,0,0,1-.33.57,1.15,1.15,0,0,1-.72.25.85.85,0,0,1-.63-.26.83.83,0,0,1-.26-.6.94.94,0,0,1,.14-.5,1.7,1.7,0,0,1,.34-.41,2.57,2.57,0,0,1,.44-.32l.42-.25c.4-.23.8-.45,1.21-.66s.8-.4,1.17-.55a10.48,10.48,0,0,1,1-.36,2.77,2.77,0,0,1,.77-.14,2.2,2.2,0,0,1,1.12.31,1.86,1.86,0,0,1,.75.77,1.36,1.36,0,0,1,.11.56q0,.4,0,.79c0,.55,0,1,0,1.48s0,.87,0,1.28,0,.83,0,1.26,0,.91,0,1.42a1.89,1.89,0,0,0,.35,1.36,1.29,1.29,0,0,0,1.58.11,1.09,1.09,0,0,0,.34-.56h.14A2.43,2.43,0,0,1,43.55,126.18Zm-4-4.81a10,10,0,0,1-1,.63q-.62.33-1.2.72a5.3,5.3,0,0,0-1,.86,1.54,1.54,0,0,0-.42,1.06,1.62,1.62,0,0,0,.41,1.07,1.35,1.35,0,0,0,1.07.48,3.57,3.57,0,0,0,1-.14,2,2,0,0,0,.84-.52.83.83,0,0,0,.28-.64Z"/>
    <path class="cls-2" d="M54.64,123.9a5.3,5.3,0,0,1-1.26,1.88,5.79,5.79,0,0,1-2,1.23,7.52,7.52,0,0,1-2.66.44l-.81,0a5.7,5.7,0,0,1-.83-.11c0,.21,0,.52,0,.93s0,.84,0,1.3,0,.9,0,1.35V132a.45.45,0,0,0,.25.31,2.12,2.12,0,0,0,.49.16,4.42,4.42,0,0,0,.59.08l.54,0v.25H43.37v-.25l.55-.08a4.57,4.57,0,0,0,.6-.15,1.76,1.76,0,0,0,.48-.23.38.38,0,0,0,.19-.32V119.16a.76.76,0,0,0,0-.27.55.55,0,0,0-.19-.21l-.66-.33-.73-.33v-.13l3.38-1.32h.14v2.55l0,0c.21-.29.44-.58.7-.89a6,6,0,0,1,.86-.83,4.87,4.87,0,0,1,1-.63,2.91,2.91,0,0,1,1.21-.25,3.74,3.74,0,0,1,1.85.43,3.87,3.87,0,0,1,1.3,1.14,5,5,0,0,1,.76,1.59,6.69,6.69,0,0,1,.25,1.8A6.23,6.23,0,0,1,54.64,123.9Zm-1.81-3.33a3.81,3.81,0,0,0-.62-1.31,3.06,3.06,0,0,0-1.07-.89,3.25,3.25,0,0,0-1.51-.33,2.45,2.45,0,0,0-1.06.22,3.34,3.34,0,0,0-.79.5,2.31,2.31,0,0,0-.5.58,1,1,0,0,0-.17.43c0,.3,0,.63,0,1s0,.64,0,.9v1.46c0,.35,0,.7,0,1a8.17,8.17,0,0,0,.16,1,2.77,2.77,0,0,0,.38.93,2.08,2.08,0,0,0,.75.69,2.54,2.54,0,0,0,1.22.26,2.48,2.48,0,0,0,1.27-.37,3.8,3.8,0,0,0,1.09-1,5.15,5.15,0,0,0,.76-1.53,6.32,6.32,0,0,0,.28-1.94A6.2,6.2,0,0,0,52.83,120.57Z"/>
    <path class="cls-2" d="M55.95,127.57v-.23l.55-.05a2.43,2.43,0,0,0,.49-.11,1.14,1.14,0,0,0,.37-.22.45.45,0,0,0,.15-.34v-7.82a1.34,1.34,0,0,0,0-.32.45.45,0,0,0-.2-.25,3.82,3.82,0,0,0-.49-.27,5.54,5.54,0,0,0-.6-.25v-.14l3.08-1h.14v10.19a.49.49,0,0,0,.19.33,1,1,0,0,0,.36.15,2.55,2.55,0,0,0,.44.06,3.28,3.28,0,0,1,.46.05v.23Zm3.27-13.74a1.24,1.24,0,0,1-2.11-.88,1.15,1.15,0,0,1,.36-.87,1.3,1.3,0,0,1,1.75,0,1.15,1.15,0,0,1,.36.87A1.18,1.18,0,0,1,59.22,113.84Z"/>
    <path class="cls-2" d="M68.6,118.18H65.14v6a2.37,2.37,0,0,0,.5,1.68,1.71,1.71,0,0,0,1.3.53,2.41,2.41,0,0,0,1.09-.22,2,2,0,0,0,.76-.67l.14.07a4.3,4.3,0,0,1-.38.72,2.63,2.63,0,0,1-.64.68,3,3,0,0,1-.93.48,4.18,4.18,0,0,1-1.27.17,2.87,2.87,0,0,1-.92-.15A2.4,2.4,0,0,1,64,127a2.63,2.63,0,0,1-.55-.64,1.39,1.39,0,0,1-.21-.72q0-2.14,0-4.07c0-1.28,0-2.43,0-3.43H61.62v-.25l3.29-3.12h.18v2h4.22Z"/>
    <path class="cls-2" d="M79.11,126.18a2.93,2.93,0,0,1-.48.74,2,2,0,0,1-.7.5,2.33,2.33,0,0,1-2.26-.28,1.89,1.89,0,0,1-.6-1.6l0,0a5.33,5.33,0,0,1-.49.66,4.78,4.78,0,0,1-.73.68,3.69,3.69,0,0,1-.94.51,3.12,3.12,0,0,1-1.13.19,2.87,2.87,0,0,1-.74-.1,1.82,1.82,0,0,1-.69-.37,2,2,0,0,1-.5-.67,2.33,2.33,0,0,1-.2-1,1.88,1.88,0,0,1,.51-1.23,5.81,5.81,0,0,1,1.27-1.07c.5-.32.95-.59,1.33-.82l1-.58.76-.41.56-.31v-2.35a.85.85,0,0,0-.08-.21,1.21,1.21,0,0,0-.27-.36,1.82,1.82,0,0,0-.54-.33,2.25,2.25,0,0,0-.89-.15,2.13,2.13,0,0,0-.72.13,2.53,2.53,0,0,0-.63.32,2.28,2.28,0,0,0-.43.39.56.56,0,0,0-.16.33v1a.71.71,0,0,1-.33.57,1.15,1.15,0,0,1-.72.25.85.85,0,0,1-.63-.26.83.83,0,0,1-.26-.6.94.94,0,0,1,.14-.5,1.69,1.69,0,0,1,.34-.41,2.55,2.55,0,0,1,.44-.32l.42-.25c.39-.23.8-.45,1.21-.66s.8-.4,1.17-.55a10.53,10.53,0,0,1,1-.36,2.76,2.76,0,0,1,.77-.14,2.2,2.2,0,0,1,1.12.31,1.86,1.86,0,0,1,.75.77,1.35,1.35,0,0,1,.11.56q0,.4,0,.79c0,.55,0,1,0,1.48s0,.87,0,1.28,0,.83,0,1.26,0,.91,0,1.42a1.89,1.89,0,0,0,.35,1.36,1.29,1.29,0,0,0,1.58.11,1.09,1.09,0,0,0,.34-.56h.14A2.44,2.44,0,0,1,79.11,126.18Zm-4-4.81a10,10,0,0,1-1,.63c-.41.22-.81.46-1.2.72a5.3,5.3,0,0,0-1,.86,1.53,1.53,0,0,0-.42,1.06,1.62,1.62,0,0,0,.41,1.07,1.35,1.35,0,0,0,1.07.48,3.57,3.57,0,0,0,1-.14,2,2,0,0,0,.84-.52.83.83,0,0,0,.28-.64Z"/>
    <path class="cls-2" d="M79.09,127.57v-.25a5.08,5.08,0,0,0,1.39-.22.52.52,0,0,0,.34-.51V113.49a.85.85,0,0,0,0-.27.53.53,0,0,0-.19-.21l-.62-.36a5.83,5.83,0,0,0-.68-.35v-.14l3.26-1.07h.16v15.62a.49.49,0,0,0,.1.34.56.56,0,0,0,.31.16,2.88,2.88,0,0,0,.52.05l.75.06v.25Z"/>
    <path class="cls-2" d="M100.6,123.9a5.4,5.4,0,0,1-1.26,1.88,5.85,5.85,0,0,1-2,1.23,7.54,7.54,0,0,1-2.66.44l-.81,0a5.59,5.59,0,0,1-.83-.11c0,.21,0,.52,0,.93s0,.84,0,1.3,0,.9,0,1.35V132a.45.45,0,0,0,.25.31,2.1,2.1,0,0,0,.49.16,4.46,4.46,0,0,0,.59.08l.54,0v.25H89.32v-.25l.55-.08a4.48,4.48,0,0,0,.6-.15,1.73,1.73,0,0,0,.48-.23.38.38,0,0,0,.2-.32V119.16a.83.83,0,0,0,0-.27.56.56,0,0,0-.2-.21l-.66-.33-.73-.33v-.13l3.37-1.32H93v2.55l0,0q.32-.43.7-.89a6,6,0,0,1,.86-.83,4.78,4.78,0,0,1,1-.63,3,3,0,0,1,1.22-.25,3.74,3.74,0,0,1,1.85.43,3.86,3.86,0,0,1,1.29,1.14,4.94,4.94,0,0,1,.76,1.59,6.58,6.58,0,0,1,.25,1.8A6.24,6.24,0,0,1,100.6,123.9Zm-1.81-3.33a4,4,0,0,0-.62-1.31,3,3,0,0,0-1.07-.89,3.23,3.23,0,0,0-1.51-.33,2.45,2.45,0,0,0-1.06.22,3.31,3.31,0,0,0-.79.5,2.35,2.35,0,0,0-.5.58,1,1,0,0,0-.17.43c0,.3,0,.63,0,1s0,.64,0,.9v1.46q0,.52,0,1a8.29,8.29,0,0,0,.16,1,2.76,2.76,0,0,0,.39.93,2.06,2.06,0,0,0,.75.69,2.55,2.55,0,0,0,1.23.26,2.44,2.44,0,0,0,1.27-.37,3.75,3.75,0,0,0,1.09-1,5.18,5.18,0,0,0,.76-1.53,6.39,6.39,0,0,0,.28-1.94A6.12,6.12,0,0,0,98.79,120.57Z"/>
    <path class="cls-2" d="M111.89,126.18a2.8,2.8,0,0,1-.48.74,2,2,0,0,1-.7.5,2.19,2.19,0,0,1-.87.17,2.24,2.24,0,0,1-1.38-.45,1.89,1.89,0,0,1-.6-1.6l0,0a6.08,6.08,0,0,1-.49.66,4.79,4.79,0,0,1-.73.68,3.71,3.71,0,0,1-.93.51,3.16,3.16,0,0,1-1.13.19,2.9,2.9,0,0,1-.74-.1,1.76,1.76,0,0,1-.68-.37,1.94,1.94,0,0,1-.5-.67,2.36,2.36,0,0,1-.19-1,1.88,1.88,0,0,1,.51-1.23,5.67,5.67,0,0,1,1.26-1.07c.5-.32.95-.59,1.33-.82l1-.58.76-.41.56-.31v-2.35a.7.7,0,0,0-.08-.21,1.26,1.26,0,0,0-.27-.36,2,2,0,0,0-.54-.33,2.26,2.26,0,0,0-.89-.15,2.11,2.11,0,0,0-.72.13,2.48,2.48,0,0,0-.63.32,2.33,2.33,0,0,0-.43.39.54.54,0,0,0-.16.33v1a.73.73,0,0,1-.33.57,1.16,1.16,0,0,1-.72.25.86.86,0,0,1-.63-.26.84.84,0,0,1-.26-.6,1,1,0,0,1,.14-.5,1.86,1.86,0,0,1,.34-.41,2.73,2.73,0,0,1,.44-.32l.42-.25c.39-.23.79-.45,1.21-.66s.8-.4,1.18-.55a10.24,10.24,0,0,1,1-.36,2.73,2.73,0,0,1,.76-.14,2.22,2.22,0,0,1,1.12.31,1.9,1.9,0,0,1,.75.77,1.39,1.39,0,0,1,.11.56c0,.27,0,.53,0,.79q0,.82,0,1.48c0,.44,0,.87,0,1.28s0,.83,0,1.26,0,.91,0,1.42a1.88,1.88,0,0,0,.36,1.36,1.29,1.29,0,0,0,1.59.11,1.07,1.07,0,0,0,.34-.56h.14A2.34,2.34,0,0,1,111.89,126.18Zm-4-4.81a9.5,9.5,0,0,1-1,.63c-.41.22-.8.46-1.2.72a5.49,5.49,0,0,0-1,.86,1.53,1.53,0,0,0-.42,1.06,1.59,1.59,0,0,0,.41,1.07,1.34,1.34,0,0,0,1.07.48,3.57,3.57,0,0,0,1-.14,2,2,0,0,0,.84-.52.83.83,0,0,0,.27-.64Z"/>
    <path class="cls-2" d="M119.78,118.6a.89.89,0,0,1-.68.33,1.16,1.16,0,0,1-.58-.13,1.73,1.73,0,0,1-.38-.28,2.74,2.74,0,0,0-.34-.29.88.88,0,0,0-.5-.12.89.89,0,0,0-.53.19,2.43,2.43,0,0,0-.49.49,4.27,4.27,0,0,0-.41.67c-.12.25-.23.49-.32.72v6.56a.54.54,0,0,0,.3.32,1.68,1.68,0,0,0,.51.16,4.83,4.83,0,0,0,.59.06,3.62,3.62,0,0,1,.53.05v.23h-5.11v-.23a3,3,0,0,0,.9-.2.55.55,0,0,0,.38-.52v-7.71a.93.93,0,0,0,0-.27.54.54,0,0,0-.2-.21l-.47-.28a3.88,3.88,0,0,0-.55-.29v-.14l3-1.16h.14l0,3.17h0c.07-.18.2-.45.37-.8a7.19,7.19,0,0,1,.64-1.06,4.17,4.17,0,0,1,.93-.92,2.12,2.12,0,0,1,1.25-.39,1.45,1.45,0,0,1,1,.34,1.1,1.1,0,0,1,.4.87A1.2,1.2,0,0,1,119.78,118.6Z"/>
    <path class="cls-2" d="M127.12,118.18h-3.47v6a2.37,2.37,0,0,0,.5,1.68,1.71,1.71,0,0,0,1.3.53,2.41,2.41,0,0,0,1.09-.22,2,2,0,0,0,.76-.67l.13.07a3.88,3.88,0,0,1-.37.72,2.64,2.64,0,0,1-.64.68,3,3,0,0,1-.93.48,4.18,4.18,0,0,1-1.26.17,2.85,2.85,0,0,1-.92-.15,2.38,2.38,0,0,1-.78-.43,2.59,2.59,0,0,1-.55-.64,1.36,1.36,0,0,1-.21-.72q0-2.14,0-4.07t0-3.43h-1.66v-.25l3.28-3.12h.18v2h4.22Z"/>
    <path class="cls-2" d="M134.26,127.57v-.25a5.47,5.47,0,0,0,1-.15.45.45,0,0,0,.37-.47V121a4,4,0,0,0-.5-2.13,1.82,1.82,0,0,0-1.68-.81,2.29,2.29,0,0,0-1.25.32,6.86,6.86,0,0,0-1.12.93v7.48a.59.59,0,0,0,.16.33.67.67,0,0,0,.27.15,1.7,1.7,0,0,0,.37.06,3.3,3.3,0,0,1,.43.05v.23h-4.4v-.23a3,3,0,0,0,.9-.2.54.54,0,0,0,.38-.52v-7.84a1,1,0,0,0,0-.28.53.53,0,0,0-.2-.2l-.48-.26c-.18-.1-.36-.19-.54-.26v-.14l3-1.07H131V119l0,0a8.29,8.29,0,0,1,.63-.83,5.21,5.21,0,0,1,.85-.81,4.8,4.8,0,0,1,1-.61,3,3,0,0,1,1.18-.24,2.33,2.33,0,0,1,2,1,4.23,4.23,0,0,1,.71,2.53v6.7a.33.33,0,0,0,.15.27,1,1,0,0,0,.36.17,3.14,3.14,0,0,0,.44.09l.45.06v.21Z"/>
    <path class="cls-2" d="M148.57,125.24a4.23,4.23,0,0,1-.86,1.15,4.61,4.61,0,0,1-1.31.87,4.14,4.14,0,0,1-1.7.34,5.13,5.13,0,0,1-2.12-.43,4.67,4.67,0,0,1-1.63-1.22,5.76,5.76,0,0,1-1-1.85,6.9,6.9,0,0,1-.37-2.25,5.78,5.78,0,0,1,1.31-3.6,4.93,4.93,0,0,1,1.53-1.22,4.27,4.27,0,0,1,2-.47,6,6,0,0,1,1.67.23,3.86,3.86,0,0,1,1.37.7,3.55,3.55,0,0,1,.95,1.17,4.35,4.35,0,0,1,.43,1.66h-7.32c0,.12,0,.26,0,.42s0,.32,0,.49a6.14,6.14,0,0,0,.27,1.84,4.9,4.9,0,0,0,.8,1.55,3.68,3.68,0,0,0,1.32,1.06,4.15,4.15,0,0,0,1.85.39,3.46,3.46,0,0,0,2-.58,2.76,2.76,0,0,0,1.13-1.42l.18,0A4.36,4.36,0,0,1,148.57,125.24ZM146,117.55a2.07,2.07,0,0,0-1.56-.6,1.9,1.9,0,0,0-1.15.38,4.12,4.12,0,0,0-.89.88,4.5,4.5,0,0,0-.58,1,4.09,4.09,0,0,0-.25.79h1.74l.84,0h1l.64,0a1.83,1.83,0,0,0,.52-.11,1.69,1.69,0,0,0,.24-.34,1.1,1.1,0,0,0,.08-.48A2,2,0,0,0,146,117.55Z"/>
    <path class="cls-2" d="M157.1,118.6a.89.89,0,0,1-.69.33,1.14,1.14,0,0,1-.58-.13,1.75,1.75,0,0,1-.38-.28,2.18,2.18,0,0,0-.34-.29.86.86,0,0,0-.5-.12.91.91,0,0,0-.54.19,2.57,2.57,0,0,0-.49.49,3.7,3.7,0,0,0-.41.67c-.12.25-.23.49-.32.72v6.56a.54.54,0,0,0,.3.32,1.79,1.79,0,0,0,.51.16,5.07,5.07,0,0,0,.59.06,3.6,3.6,0,0,1,.54.05v.23h-5.11v-.23a3.05,3.05,0,0,0,.9-.2.54.54,0,0,0,.38-.52v-7.71a.76.76,0,0,0,0-.27.51.51,0,0,0-.19-.21l-.48-.28a3.88,3.88,0,0,0-.55-.29v-.14l3-1.16h.14l0,3.17h0c.07-.18.2-.45.36-.8a6.81,6.81,0,0,1,.64-1.06,4,4,0,0,1,.93-.92,2.1,2.1,0,0,1,1.25-.39,1.44,1.44,0,0,1,1,.34,1.09,1.09,0,0,1,.4.87A1.2,1.2,0,0,1,157.1,118.6Z"/>
    <path class="cls-2" d="M165.23,125.78a3.05,3.05,0,0,1-.95,1.06,4.05,4.05,0,0,1-1.36.59,6.9,6.9,0,0,1-1.61.18,9.41,9.41,0,0,1-1.89-.18,7.86,7.86,0,0,1-1.64-.52v-3H158a12.24,12.24,0,0,0,.46,1.15,5.72,5.72,0,0,0,.66,1.12,3.3,3.3,0,0,0,.93.84,2.46,2.46,0,0,0,1.29.33,2.4,2.4,0,0,0,1.74-.62,2.58,2.58,0,0,0,.65-1.93,1.64,1.64,0,0,0-.44-1.17A2.23,2.23,0,0,0,162,123l-1.18-.25q-.56-.14-1-.3a2.79,2.79,0,0,1-1.39-1,2.86,2.86,0,0,1-.54-1.75,2.73,2.73,0,0,1,.3-1.28,3.06,3.06,0,0,1,.8-1,3.51,3.51,0,0,1,1.16-.63,4.51,4.51,0,0,1,1.42-.22,7.46,7.46,0,0,1,1.68.17,11.1,11.1,0,0,1,1.39.42l.27,2.83-.18,0c-.21-.46-.42-.88-.64-1.26a5.18,5.18,0,0,0-.71-1,2.72,2.72,0,0,0-.88-.65,2.62,2.62,0,0,0-1.13-.23,2.28,2.28,0,0,0-.77.14,2,2,0,0,0-.66.4,2,2,0,0,0-.46.66,2.18,2.18,0,0,0-.18.92,1.42,1.42,0,0,0,.48,1.21,3.2,3.2,0,0,0,1.21.55l1.1.24,1,.24a3.4,3.4,0,0,1,1.74,1,2.82,2.82,0,0,1,.72,2A3.22,3.22,0,0,1,165.23,125.78Z"/>
  </g>
  <line class="cls-3" y1="31.01" x2="192.47" y2="31.01"/>
  <line class="cls-3" y1="108.4" x2="192.47" y2="108.4"/>
  <circle class="cls-4" cx="162.32" cy="68.97" r="30.52"/>
  <path class="cls-2" d="M181.94,59.95l-4.87,1.74q-4.91-5.23-13.75-5.22-6.7,0-10.91,3.44a11.33,11.33,0,0,0,0,17.62q4.17,3.37,11.28,3.37,8.57,0,13.48-5.31l4.6,2.55A20.83,20.83,0,0,1,173.84,84a27.63,27.63,0,0,1-10.52,1.81q-8.57,0-14.24-4.29a15.86,15.86,0,0,1,.09-25.63,22.77,22.77,0,0,1,14.15-4.33Q175.47,51.55,181.94,59.95Z"/>
  <path class="cls-4" d="M127.38,69A30.52,30.52,0,1,1,96.86,38.45,30.52,30.52,0,0,1,127.38,69Z"/>
  <path class="cls-2" d="M115.36,84.91H110V70.53H84.11V84.91H78.75V52.58h5.36V65.71H110V52.58h5.36Z"/>
  <circle class="cls-1" cx="31.4" cy="68.97" r="30.52"/>
  <path class="cls-2" d="M49.95,84.91H43.72L35,72.58H18.65V84.91H13.29V52.58h25.5q5.09,0,8,2.75a9.75,9.75,0,0,1,2.9,7.44,9.24,9.24,0,0,1-2.37,6.61,10.27,10.27,0,0,1-6,2.94ZM38,67.76q6.21,0,6.21-5,0-5.36-6.7-5.36H18.65V67.76Z"/>
</svg>
