<svg class="{{ .class }}" xmlns="http://www.w3.org/2000/svg" width="11" height="14.5" viewBox="0 0 11 14.5">
  <path d="M5.5,0A5.44,5.44,0,0,0,0,5.37C0,8.24,5.05,14,5.27,14.23l.23.27.23-.27C5.95,14,11,8.24,11,5.37A5.44,5.44,0,0,0,5.5,0Zm0,13.57C4.5,12.39.62,7.69.62,5.37A4.83,4.83,0,0,1,5.5.6a4.83,4.83,0,0,1,4.88,4.76C10.38,7.69,6.5,12.39,5.5,13.57Zm0-11.4A3.1,3.1,0,0,0,2.37,5.22,3.1,3.1,0,0,0,5.5,8.28,3.1,3.1,0,0,0,8.63,5.22,3.1,3.1,0,0,0,5.5,2.17Zm0,5.5A2.48,2.48,0,0,1,3,5.22a2.51,2.51,0,0,1,5,0A2.48,2.48,0,0,1,5.5,7.67Z" transform="translate(0)"/>
</svg>
