<svg class="{{ .class }}" xmlns="http://www.w3.org/2000/svg" width="15.5" height="15" viewBox="0 0 15.5 15">
  <path d="M11,9.55a1.37,1.37,0,0,0-1.06-.17,1.52,1.52,0,0,0-.65.5,1.71,1.71,0,0,1-1.48.7,2.24,2.24,0,0,1-1.31-.71L5.19,8.6a2.21,2.21,0,0,1-.72-1.3,1.68,1.68,0,0,1,.7-1.46,1.51,1.51,0,0,0,.5-.65,1.33,1.33,0,0,0-.17-1.05c-.57-.74-1.14-1.5-1.72-2.23a1.19,1.19,0,0,0-1.17-.32,2.21,2.21,0,0,0-.86.57A4.65,4.65,0,0,0,.05,6.29,8.45,8.45,0,0,0,2.77,10.5l1.78,1.77A8.54,8.54,0,0,0,8.81,15,4.85,4.85,0,0,0,13,13.27a2.19,2.19,0,0,0,.58-.86,1.16,1.16,0,0,0-.33-1.16C12.49,10.68,11.72,10.11,11,9.55Zm1.89,2.65a1.72,1.72,0,0,1-.41.57c-1.29,1.28-2.38,1.68-3.53,1.48a8,8,0,0,1-3.86-2.49L3.28,10A7.92,7.92,0,0,1,.77,6.16C.57,5,1,3.95,2.26,2.67a1.73,1.73,0,0,1,.57-.4c.16,0,.24-.05.45.15l1.6,2.08C5,4.77,5,4.88,5,5a1.05,1.05,0,0,1-.3.34,2.46,2.46,0,0,0-.94,2.06,2.85,2.85,0,0,0,.93,1.74L6,10.37a2.89,2.89,0,0,0,1.76.92,2.5,2.5,0,0,0,2.08-.94,1.06,1.06,0,0,1,.35-.3c.08,0,.19,0,.47.11l2.09,1.59C12.92,12,12.91,12,12.86,12.2Zm-.25-4a.36.36,0,1,0,.72,0A6.11,6.11,0,0,0,7.21,2.14a.39.39,0,0,0-.38.38.37.37,0,0,0,.38.34A5.38,5.38,0,0,1,12.62,8.22ZM7.21,0a.39.39,0,0,0-.38.38.37.37,0,0,0,.38.34,7.53,7.53,0,0,1,7.57,7.5.36.36,0,1,0,.72,0A8.26,8.26,0,0,0,7.21,0Z"/>
</svg>
