<svg class="@@class" xmlns="http://www.w3.org/2000/svg" width="35" height="35" viewBox="0 0 35 35">
  <path d="M8.2,2.79a.43.43,0,0,0-.6.6l4.68,4.69a.41.41,0,0,0,.6,0,.42.42,0,0,0,0-.6ZM27.18,13a.39.39,0,0,0,.3-.13l4.68-4.69a.43.43,0,0,0-.6-.6L26.88,12.3a.42.42,0,0,0,0,.6C27,13,27.05,13,27.18,13Zm7.69,17-1.72-1.72a3,3,0,0,0-2.19-.9,3.47,3.47,0,0,0-1.16.22L19.62,17.5l2.88-2.88.17.17a.41.41,0,0,0,.6,0l1-1,1.59,1.59a1.45,1.45,0,0,0,2.06,0l5.2-5.2A6,6,0,0,0,28.9,0a5.77,5.77,0,0,0-4.21,1.76L19.58,7a1.48,1.48,0,0,0,0,2.06l1.59,1.59-1,1a.42.42,0,0,0,0,.6l.17.17-2.88,2.88L14.6,12.38l.17-.17a.42.42,0,0,0,0-.6l-1-1L15.33,9a1.48,1.48,0,0,0,0-2.06l-5.2-5.2A6,6,0,0,0,5.93,0,5.77,5.77,0,0,0,1.72,1.76,6.11,6.11,0,0,0,0,6a5.79,5.79,0,0,0,1.76,4.21L7,15.39a1.45,1.45,0,0,0,2.06,0l1.59-1.59,1,1a.41.41,0,0,0,.6,0l.17-.17,2.88,2.88L5.2,27.65A3.68,3.68,0,0,0,4,27.43a3.16,3.16,0,0,0-2.19.9L.13,30.05a.42.42,0,0,0,0,.6l4.25,4.26a.46.46,0,0,0,.26.09.39.39,0,0,0,.3-.13l1.72-1.72a3.15,3.15,0,0,0,.69-3.35L17.48,19.65,27.61,29.8A3.69,3.69,0,0,0,27.4,31a3.17,3.17,0,0,0,.9,2.19L30,34.87a.41.41,0,0,0,.6,0l4.25-4.26A.42.42,0,0,0,34.87,30ZM20.18,8.43a.65.65,0,0,1,0-.86l5.2-5.2A5.1,5.1,0,0,1,29,.86a5,5,0,0,1,3.61,1.5,5.09,5.09,0,0,1,0,7.18l-5.24,5.25a.57.57,0,0,1-.86,0Zm1.59,2.84L23.7,13.2l-.69.69L21.08,12ZM8.42,14.79a.57.57,0,0,1-.86,0l-5.2-5.2A5.11,5.11,0,0,1,.86,6a5,5,0,0,1,1.5-3.61A5,5,0,0,1,6,.86a5,5,0,0,1,3.61,1.5l5.2,5.2a.57.57,0,0,1,0,.86Zm3.48-.9-.69-.69,1.93-1.93.69.69ZM13,14l.94-.95L16.83,16l-.94.95Zm-7,18.53L4.64,34,1,30.36l1.42-1.42A2.2,2.2,0,0,1,4,28.29a2.2,2.2,0,0,1,1.59.64l.43.43A2.29,2.29,0,0,1,6.05,32.55ZM6.91,29l-.26-.26-.43-.43L6,28.08l15-15,.94.95ZM18.08,19,19,18.1l10,10-.26.26-.43.43L28,29ZM30.32,34,28.9,32.55a2.29,2.29,0,0,1,0-3.18l.43-.43a2.28,2.28,0,0,1,3.18,0l1.42,1.42Z" transform="translate(0)"/>
</svg>
